<svg width="1440" height="1394" viewBox="0 0 1440 1394" fill="none" xmlns="http://www.w3.org/2000/svg">
<g opacity="0.21" clip-path="url(#clip0_879_1363)">
<path d="M109.781 9.31124e-05C110.804 22.0809 111.827 44.1616 112.912 67.7599C98.4046 70.2064 84.2693 71.9717 70.4439 75.0685C15.5762 87.4251 -25.1873 115.297 -37.4008 174.169C-45.3984 212.818 -27.1091 251.808 8.1984 270.048C47.2878 290.24 89.942 297.611 132.937 302.937C155.442 305.724 178.071 307.521 200.669 309.1C208.512 309.627 211.767 312.352 211.612 320.249C211.302 335.702 212.015 351.218 211.147 366.64C210.93 370.233 206.094 376.55 203.366 376.55C126.241 376.55 48.8686 374.011 -21.3124 337.498C-118.772 286.802 -148.562 166.953 -65.9815 69.9897C-35.4477 34.1587 4.97453 14.3387 50.2327 3.49957C53.6425 2.69438 56.8663 1.17691 60.1831 9.09444e-05C76.7054 9.16666e-05 93.2587 9.23902e-05 109.781 9.31124e-05Z" fill="#F15A25"/>
<path d="M410.469 8.561e-05C399.619 15.5464 386.569 30.0398 378.323 46.8559C357.957 88.3232 373.704 124.34 400.859 156.3C426.03 185.906 457.029 192.409 496.273 177.421C543.887 159.273 579.567 124.835 613.758 88.7258C617.664 84.6069 621.167 80.1474 624.949 75.9357C625.569 75.2234 626.716 74.9756 629.258 73.6749C646.896 88.8187 665.03 104.396 683.939 120.624C640.882 170.979 594.477 215.326 534.495 242.455C447.791 281.631 362.483 250.476 317.039 165.405C288.892 112.696 287.28 60.3274 314.714 7.15388C315.861 4.92413 316.543 2.41565 317.411 0.0310504C348.409 0.0310517 379.408 0.0310531 410.407 0.0310544L410.469 8.561e-05Z" fill="#F15A25"/>
<path d="M261.674 1393.6C271.935 1340.55 302.778 1297.66 330.398 1253.03C354.763 1213.67 379.221 1174.21 401.168 1133.52C427.269 1085.12 419.799 1039.25 384.026 997.847C376.307 988.897 368.279 980.195 361.459 972.607C378.074 955.234 394.597 937.984 412.421 919.341C448.627 955.76 478.789 996.268 488.151 1049.22C496.551 1096.85 483.16 1140.71 460.407 1181.09C431.64 1232.19 398.812 1281 368.93 1331.51C357.274 1351.2 348.967 1372.88 339.109 1393.63L261.612 1393.63L261.674 1393.6Z" fill="#F15A25"/>
<path d="M549.962 1393.6C569.336 1365.63 587.068 1336.34 608.457 1309.98C659.945 1246.53 728.081 1231.88 803.717 1253.06C838.033 1262.66 869.993 1280.78 902.82 1295.52C925.387 1305.65 946.87 1318.65 970.119 1326.61C991.663 1334.01 1014.91 1336.46 1039.34 1341.48C1041.32 1357.12 1043.62 1375.36 1045.94 1393.6L931.246 1393.6C904.959 1379.82 878.982 1365.26 852.23 1352.44C830.066 1341.82 807.561 1330.92 784.064 1324.13C720.61 1305.89 666.145 1333.58 642.958 1393.6L549.962 1393.6Z" fill="#F15A25"/>
<path d="M261.674 9.75611e-05C241.494 17.4665 242.207 40.3525 244.315 64.0127C246.609 89.6549 249.523 115.359 249.399 141.032C249.12 189.622 223.825 224.122 181.822 245.583C140.655 266.611 101.473 257.692 65.9796 230.625C40.3127 211.084 20.3184 186.402 3.70309 157.043C24.4412 144.594 44.6215 132.454 66.3516 119.416C69.7614 124.309 72.4583 129.109 76.0231 133.166C87.5237 146.297 98.4351 160.14 111.331 171.753C121.808 181.199 135.107 187.238 149.676 178.876C164.741 170.236 176.304 158.499 175.467 139.793C174.382 115.111 170.91 90.491 170.724 65.8398C170.538 43.9139 173.421 21.957 174.94 9.37698e-05C203.862 9.5034e-05 232.815 9.62996e-05 261.736 9.75638e-05L261.674 9.75611e-05Z" fill="#F15A25"/>
<path d="M1244.33 9.05097e-05C1294.8 23.8461 1337.21 57.5712 1367.83 104.427C1381.53 125.393 1392.2 148.31 1405.71 173.085C1379.36 181.075 1356.52 188.012 1335 194.546C1321.83 173.054 1310.98 151.252 1296.41 132.268C1254.97 78.2274 1198.3 52.1206 1131 53.5142C1092.19 54.3194 1053.54 62.2165 1010.76 67.4192C1005.67 47.754 999.444 23.8771 993.244 7.95342e-05C1076.94 8.31927e-05 1160.64 8.68512e-05 1244.33 9.05097e-05Z" fill="#F15A25"/>
<path d="M912.648 9.45557e-05C888.748 47.5063 880.657 96.5609 900.372 147.412C915.19 185.658 936.858 220.034 963.548 251.188C969.22 257.816 975.017 264.319 981.465 271.659C965.129 289.621 949.257 307.087 930.317 327.898C910.106 301.637 889.492 277.419 871.791 251.25C834.996 196.838 809.794 138.028 816.8 70.4852C819.28 46.7321 826.812 23.4745 832.051 9.10327e-05C858.927 9.22075e-05 885.772 9.33809e-05 912.648 9.45557e-05Z" fill="#F15A25"/>
<path d="M1120.34 1393.6C1113.39 1369.04 1103.1 1344.82 1100.41 1319.8C1097.49 1292.7 1101.65 1264.86 1102.79 1235.5C1130.07 1240.77 1153.07 1245.23 1176.94 1249.84C1175.61 1267.68 1173.38 1284.9 1173.19 1302.15C1172.54 1369.94 1218.11 1390.28 1269.38 1380.13C1306.73 1372.69 1343 1360 1380.23 1351.79C1400.63 1347.27 1422.23 1344.17 1442.91 1345.72C1478.19 1348.38 1507.98 1364.43 1529.52 1393.6L1120.34 1393.6Z" fill="#F15A25"/>
<path d="M26.0843 1393.6C39.6617 1337.82 61.144 1286.14 102.992 1244.98C131.542 1216.92 165.145 1199.64 205.784 1197.84C211.333 1197.6 216.881 1197.81 225.251 1197.81C223.205 1223.27 221.283 1246.93 219.361 1270.5C155.008 1274.99 130.984 1320.85 110.246 1370C107.084 1377.46 105.72 1385.7 103.519 1393.57L26.0224 1393.57L26.0843 1393.6Z" fill="#F15A25"/>
<path d="M165.579 1393.6C160.743 1366.72 160.743 1366.59 187.402 1362.41C202.529 1360.03 217.688 1358.14 234.737 1355.75C236.566 1368.85 238.271 1381.24 239.976 1393.6L165.579 1393.6Z" fill="#F15A25"/>
<path d="M1523.32 9.75638e-05C1510.95 14.8961 1498.62 29.7921 1484.79 46.4224C1467.12 30.4734 1450.26 15.2368 1433.43 9.36343e-05C1463.4 9.49446e-05 1493.35 9.62535e-05 1523.32 9.75638e-05Z" fill="#F15A25"/>
<path d="M627.459 9.75638e-05C623.646 8.20684 619.833 16.3826 614.842 27.1598C597.762 17.7762 581.612 8.88815 565.462 9.48538e-05C586.138 9.57576e-05 606.783 9.666e-05 627.459 9.75638e-05Z" fill="#F15A25"/>
<path d="M742.155 1393.6C748.727 1385.42 755.298 1377.21 762.862 1367.83C773.216 1377.06 782.484 1385.33 791.753 1393.6L742.155 1393.6Z" fill="#F15A25"/>
<path d="M758.305 1137.39C745.378 1120.55 730.995 1101.84 713.915 1079.57C737.443 1068.98 758.708 1057.77 781.089 1049.66C821.976 1034.82 864.383 1026.65 908.029 1024.73C965.066 1022.22 1013.42 1044.39 1059.21 1075.39C1086.52 1093.88 1114.39 1111.56 1142.53 1128.72C1162.87 1141.11 1184.38 1140.18 1204.19 1127.73C1228.62 1112.4 1252.08 1095.52 1276.05 1079.39C1309.31 1057 1344.18 1039.62 1385.44 1036.4C1441.52 1032.04 1503.3 1066.75 1531.35 1120.76C1558.72 1173.44 1551.59 1236.93 1512.1 1280.78C1487.86 1307.69 1455.59 1320.6 1420.53 1324.57C1358.9 1331.5 1299.82 1318.44 1239.99 1298.18C1247.62 1274.86 1254.9 1252.6 1262.59 1229.06C1281.41 1234.01 1299.08 1239.06 1316.93 1243.34C1351.28 1251.54 1385.9 1255.17 1421.18 1249.1C1479.43 1239.03 1486.25 1174.15 1455.37 1139.87C1426.7 1108.03 1388.07 1100.42 1347.53 1122.93C1321.92 1137.14 1298.71 1155.6 1274 1171.46C1258.41 1181.43 1242.54 1191.28 1225.83 1199.14C1185.56 1218.1 1145.29 1215.53 1106.95 1193.88C1081.84 1179.73 1056.23 1165.48 1034.01 1147.4C973.901 1098.53 907.874 1087.44 835.12 1110.54C810.228 1118.47 785.739 1127.73 758.305 1137.39Z" fill="#F15A25"/>
<path d="M682.296 400.024C671.168 422.136 660.597 443.133 650.863 462.427C630.776 458.927 612.332 453.724 593.702 452.95C565.276 451.742 551.513 468.528 557.061 496.585C561.649 519.781 569.244 542.357 574.421 565.46C578.915 585.497 583.906 605.781 585.084 626.159C588.091 678.279 561.308 722.967 511.524 739.474C472.807 752.295 431.3 756.662 391.063 764.806C380.989 766.85 370.666 768.12 360.839 771.124C325.873 781.746 311.335 812.343 327.051 845.232C334.925 861.739 346.611 876.449 355.043 889.58C339.667 907.077 323.858 925.101 308.142 943.032C261.985 901.286 232.257 835.384 253.491 779.424C273.361 727.086 314.651 702.528 367.225 693.64C395.651 688.84 424.325 685.371 452.875 681.252C455.417 680.881 457.927 680.323 460.438 679.673C507.618 667.843 518.809 649.447 507.308 602.251C499.528 570.26 489.67 538.641 483.935 506.279C471.784 437.528 514.593 383.642 584.309 378.284C618.439 375.652 650.553 383.673 682.327 400.024L682.296 400.024Z" fill="#F15A25"/>
<path d="M156.372 662.3C133.401 647.868 113.469 635.357 93.6301 622.907C126.83 562.518 203.582 537.96 269.827 565.212C287.961 572.676 305.816 581.006 324.447 586.983C337.032 591.009 350.64 592.403 363.908 593.425C375.873 594.323 382.29 585.373 383.251 575.246C383.871 568.929 380.616 559.607 375.842 555.953C365.334 547.932 352.872 542.357 340.907 536.318C304.421 517.892 270.447 496.895 253.831 456.821C238.518 419.907 242.393 383.673 256.311 346.356C277.576 354.098 297.602 360.911 317.069 369.025C320.107 370.294 322.215 377.603 321.998 381.97C321.533 391.632 317.999 401.263 318.154 410.864C318.526 432.821 332.134 446.788 350.02 456.852C370.697 468.466 392.675 477.911 412.514 490.732C443.916 511.017 463.755 539.415 458.361 578.684C452.502 621.297 431.175 653.381 387.312 664.808C355.724 673.015 324.725 666.264 294.688 655.672C279.126 650.191 263.906 643.656 248.81 637.029C212.355 621.018 186.657 626.283 159.998 655.889C158.634 657.407 157.953 659.543 156.434 662.362L156.372 662.3Z" fill="#F15A25"/>
<path d="M1276.7 647.342C1276.7 670.289 1277.22 691.348 1276.11 712.283C1275.95 715.349 1268.11 720.149 1263.58 720.49C1244.15 721.945 1224.34 720.242 1205.12 723.029C1177.78 727.024 1153.57 739.969 1137.05 762.298C1073.38 848.36 970.801 829.469 910.849 754.153C903.813 745.296 898.14 735.386 891.63 726.095C872.721 699.121 846.837 683.978 813.916 681.655C791.969 680.076 769.929 679.332 745.812 678.094C740.728 657.128 735.18 634.242 728.856 608.011C746.184 606.834 762.303 604.605 778.361 604.883C826.316 605.812 874.24 609.838 912.399 642.975C931.184 659.296 945.63 680.509 962.741 698.874C974.552 711.54 986.021 725.414 1000.28 734.674C1028.27 752.852 1050.87 748.362 1072.79 722.937C1092.84 699.648 1114.98 679.425 1142.87 665.613C1185.37 644.554 1230.48 645.638 1276.7 647.28L1276.7 647.342Z" fill="#F15A25"/>
<path d="M464.313 1367.37C442.211 1362.32 419.334 1357.09 394.783 1351.45C402.439 1318.81 417.102 1291.06 436.817 1265.73C457.276 1239.47 486.26 1226.12 515.74 1213.27C540.26 1202.58 565.121 1192.33 588.494 1179.45C609.79 1167.71 614.13 1152.44 602.381 1131.48C593.732 1116.02 581.519 1102.37 569.863 1088.83C557.433 1074.4 542.398 1062.11 530.929 1047.02C496.706 1001.9 502.627 953.128 546.242 917.08C560.44 905.343 576.373 895.649 593.391 883.695C600.459 895.556 606.783 905.9 612.828 916.398C618.686 926.618 624.204 937.024 630.28 948.049C618.438 956.317 606.721 963.688 595.933 972.235C580.837 984.22 580.124 990.414 592.368 1005.46C599.808 1014.6 608.674 1022.62 617.167 1030.89C647.05 1060 673.802 1090.94 680.684 1134.23C687.224 1175.45 672.903 1209.27 640.199 1233.05C618.407 1248.91 592.647 1259.41 568.406 1271.83C559.727 1276.26 550.52 1279.88 541.252 1282.88C503.061 1295.21 480.618 1322.03 469.334 1359.44C468.9 1360.89 468.188 1362.29 467.444 1363.62C466.948 1364.49 466.142 1365.2 464.344 1367.3L464.313 1367.37Z" fill="#F15A25"/>
<path d="M1351.87 916.77C1354.25 937.891 1356.98 958.238 1358.5 978.677C1358.75 982.177 1354.32 988.99 1351.56 989.237C1320.68 992.087 1300.63 1011.69 1280.29 1032.07C1255.99 1056.41 1227.04 1072.64 1191.76 1074.93C1158.84 1077.07 1133.08 1061.8 1110.26 1040.21C1088.53 1019.65 1067.05 998.807 1045.57 977.996C1026.85 959.848 1006.6 955.327 982.147 967.126C963.206 976.262 942.995 982.703 921.265 991.158C913.422 967.838 905.797 945.138 896.9 918.721C932.921 907.511 966.988 893.513 1002.45 886.824C1035.62 880.599 1065.07 896.857 1089.74 918.783C1114.01 940.369 1137.17 963.255 1160.61 985.769C1179.83 1004.23 1191.45 1005.99 1213.77 990.848C1223.47 984.252 1232.06 975.766 1240.21 967.25C1266.9 939.409 1299.2 922.624 1337.27 916.894C1341.67 916.244 1346.26 916.801 1351.87 916.801L1351.87 916.77Z" fill="#F15A25"/>
<path d="M1786.13 602.932C1787.56 624.734 1788.89 645.143 1790.28 667.038C1759.59 669.051 1731.66 663.848 1704.14 654.836C1666.47 642.48 1637.43 618.757 1613.31 588.067C1604.38 576.733 1595.05 565.646 1585.23 555.085C1540.03 506.464 1469.38 505.659 1426.23 556.138C1406.8 578.87 1393.84 607.144 1378.16 633.034C1375.58 637.308 1374.06 642.201 1371.55 648.023C1351.06 640.033 1331.6 632.446 1312.22 624.858C1339.04 537.774 1406.64 459.671 1488.88 454.003C1542.57 450.318 1589.94 464.687 1627.79 504.204C1642.05 519.069 1655.78 534.584 1668.27 550.936C1693.38 583.794 1727.82 597.079 1767.28 600.95C1773.3 601.539 1779.34 602.189 1786.1 602.901L1786.13 602.932Z" fill="#F15A25"/>
<path d="M-198.966 285.749C-176.492 274.105 -155.661 263.328 -134.21 252.21C-106.342 299.283 -91.3075 346.541 -106.187 400.582C-113.379 426.627 -117.594 453.848 -119.888 480.822C-122.988 516.932 -107.024 544.711 -75.1882 562.611C-43.6005 580.356 -12.3848 581.099 16.723 559.483C34.7023 576.237 52.2474 592.589 70.8467 609.9C37.0581 640.621 -0.760271 653.318 -42.9805 648.89C-145.493 638.206 -210.188 550.719 -192.735 447.902C-189.48 428.701 -186.412 409.191 -180.398 390.765C-170.788 361.344 -173.981 334.092 -188.271 307.366C-191.65 301.048 -194.626 294.513 -198.904 285.749L-198.966 285.749Z" fill="#F15A25"/>
<path d="M764.164 771.743C769.124 747.03 773.743 724.02 778.547 699.988C819.621 707.514 856.695 720.304 887.353 747.34C957.193 808.968 916.058 910.391 851.735 934.701C823.433 945.385 793.551 951.951 764.412 960.498C727.616 971.306 720.611 980.163 716.798 1018.75C716.488 1022 713.698 1027.2 711.249 1027.73C689.705 1032.35 667.975 1036.09 646.555 1040.06C634.124 997.413 652.042 923.088 717.728 898.591C746.061 888 776.005 881.744 805.144 873.352C821.202 868.738 836.36 863.318 844.079 846.037C853.502 824.886 850.588 809.03 830.594 796.983C817.079 788.838 801.703 783.635 786.917 777.751C780.314 775.119 773.123 774.035 764.195 771.743L764.164 771.743Z" fill="#F15A25"/>
<path d="M833.26 556.696C811.53 564.469 789.428 572.366 767.636 580.139C712.117 491.537 762.304 361.871 860.88 336.383C899.628 326.381 935.432 335.702 969.313 354.717C998.452 371.1 1022.97 392.871 1044.33 421.579C1024.99 436.01 1005.83 450.287 986.083 465.028C977.032 455.985 968.724 447.004 959.673 438.828C952.822 432.635 945.413 426.874 937.571 422.012C911.873 406.001 885.617 399.87 857.935 418.141C829.54 436.877 818.442 463.882 821.635 496.461C823.557 516.25 829.075 535.668 833.26 556.696Z" fill="#F15A25"/>
<path d="M681.831 72.9623C688.836 49.9215 695.687 27.5001 702.476 5.23349C763.419 15.8248 805.174 80.4258 791.008 140.97C788.435 151.933 784.622 162.803 779.91 173.023C749.284 239.079 740.542 290.921 781.243 364.503C760.846 377.014 740.356 389.557 718.936 402.687C681.211 341.679 669.431 277.759 687.689 209.318C692.959 189.529 700.337 170.112 708.489 151.313C727.306 107.895 724.268 97.2109 681.831 72.9623Z" fill="#F15A25"/>
<path d="M-12.633 940.183C11.143 931.45 33.1212 923.367 56.2152 914.851C70.6296 950.341 75.3104 985.522 73.3884 1021.85C71.0635 1065.14 55.7501 1104.04 33.0591 1140.33C25.9604 1151.67 17.8387 1162.38 10.2441 1173.41C-7.17721 1198.71 -5.19317 1217.48 18.7068 1236.55C26.9215 1243.12 28.1923 1247.8 22.7985 1256.68C13.4679 1272.08 5.4083 1288.24 -3.27133 1304.04C-3.98431 1305.34 -5.25529 1306.33 -6.21625 1307.38C-65.0518 1278.83 -100.793 1207.17 -53.9852 1135.63C-37.7108 1110.76 -20.9716 1085.55 -9.47107 1058.39C6.55527 1020.49 1.96743 980.845 -12.602 940.121L-12.633 940.183Z" fill="#F15A25"/>
<path d="M1173.22 169.864C1196.69 164.909 1219.26 160.109 1243.37 154.999C1245.51 159.954 1247.25 165.157 1249.85 169.895C1259.77 187.826 1267.74 207.46 1280.51 223.1C1322.51 274.539 1393.16 248.711 1418.17 208.916C1426.85 195.135 1433.08 179.836 1441.14 163.794C1463.18 169.4 1485.97 175.191 1508.69 180.982C1493.56 264.567 1423.88 320.466 1350.97 324.739C1266.28 329.725 1193.19 266.301 1173.22 169.833L1173.22 169.864Z" fill="#F15A25"/>
<path d="M917.762 584.847C914.073 559.731 910.663 536.504 907.191 512.689C928.425 506.557 948.916 501.695 968.662 494.727C1024.46 475.031 1076.41 448.181 1109.98 397.392C1125.3 374.259 1133.98 346.758 1146.9 318.515C1164.02 320.497 1185.47 322.448 1206.67 326.009C1209.52 326.474 1213.46 335.331 1212.78 339.605C1203.85 394.915 1178.43 441.709 1137.76 480.234C1076.57 538.239 1001.86 567.783 917.762 584.816L917.762 584.847Z" fill="#F15A25"/>
<path d="M610.1 257.103C623.429 276.861 636.604 296.403 649.778 315.913C553.217 390.114 390.939 374.909 265.859 304.3C277.639 283.613 289.418 262.894 301.26 242.114C402.192 286.988 502.782 317.647 610.131 257.103L610.1 257.103Z" fill="#F15A25"/>
<path d="M1404.72 990.167C1407.63 977.222 1409.59 965.608 1412.9 954.398C1439.87 862.854 1407.14 782.521 1320.47 737.027C1331.1 715.69 1341.76 694.29 1352.43 672.922C1480.26 730.307 1528.03 867.685 1474.13 1007.26C1451.5 1001.69 1428.68 996.051 1404.75 990.167L1404.72 990.167Z" fill="#F15A25"/>
<path d="M1417.09 358.588C1415.14 381.133 1413.37 401.666 1411.51 422.167C1411.29 424.645 1410.64 427.091 1409.96 430.931C1405.59 430.931 1401.65 430.993 1397.72 430.931C1330.36 430.002 1290.12 459.392 1272.26 524.705C1265.94 547.839 1263.24 571.932 1258.53 597.513C1238.29 598.411 1216.81 599.649 1195.33 599.897C1192.72 599.897 1187.73 594.416 1187.73 591.505C1188.04 521.082 1213.12 423.22 1295.51 378.842C1332.84 358.743 1373.2 353.076 1417.09 358.619L1417.09 358.588Z" fill="#F15A25"/>
<path d="M473.179 865.734C468.808 844.365 464.561 823.771 460.5 803.146C460.004 800.699 460.438 798.067 460.438 792.616C560.347 785.772 625.879 735.2 651.422 634.706C674.95 638.918 698.447 643.161 721.851 647.341C711.962 758.86 607.372 850.745 473.179 865.734Z" fill="#F15A25"/>
<path d="M180.768 1147.02C161.301 1162.57 142.794 1177.34 124.35 1192.08C73.2642 1135.75 61.2057 1063.16 109.812 1005.47C144.313 964.493 190.625 943.156 241.959 927.176C248.469 951.641 254.514 974.341 260.527 996.949C242.083 1005.4 224.786 1013.18 207.644 1021.29C202.529 1023.71 197.786 1026.93 193.043 1030.02C148.219 1059.2 142.019 1091.4 172.646 1135.5C174.971 1138.85 177.358 1142.19 180.768 1147.02Z" fill="#F15A25"/>
<path d="M197.724 912.094C176.366 902.401 154.946 892.677 133.34 882.89C137.37 866.57 141.709 851.364 144.685 835.88C146.514 826.341 147.32 816.369 146.762 806.707C144.84 773.818 129.279 755.206 96.5134 746.659C83.122 743.19 69.2655 741.58 53.9831 738.823C53.9831 727.52 53.7042 715.814 54.0762 704.138C54.4482 692.339 55.4401 680.571 56.122 669.082C98.0013 659.605 168.244 689.831 195.895 727.179C232.939 777.194 225.344 860.438 197.724 912.094Z" fill="#F15A25"/>
<path d="M61.175 780.477C78.9062 798.067 95.5837 814.635 112.292 831.235C60.0902 897.508 -63.5638 924.389 -146.826 886.018C-138.116 865.517 -129.746 844.706 -120.074 824.514C-118.989 822.254 -110.248 822.099 -105.629 823.276C-52.6523 836.778 -3.48826 829.531 41.1189 796.983C48.1556 791.842 54.6032 785.927 61.175 780.477Z" fill="#F15A25"/>
<path d="M237.309 1063.69C251.817 1045.32 266.386 1026.86 282.165 1006.89C320.386 1037.55 350.765 1072.17 353.555 1122.74C356.375 1174.18 330.802 1212.74 291.402 1246.28C276.337 1226.21 262.016 1207.17 247.911 1188.37C285.885 1145.51 298.532 1120.14 237.309 1063.69Z" fill="#F15A25"/>
<path d="M98.6211 491.537L98.6211 558.523C46.8223 557.377 1.75022 545.02 -30.5194 504.203C-61.5801 464.966 -62.2312 420.092 -51.5056 371.254C-27.4196 378.439 -4.97656 385.128 18.2415 392.065C17.3735 416.964 9.8718 445.3 31.9739 461.869C50.3871 475.681 74.8451 481.41 98.6211 491.568L98.6211 491.537Z" fill="#F15A25"/>
<path d="M1067.83 115.575C1088.29 104.488 1108.93 93.2778 1129.51 82.129C1192.01 176.119 1149.54 277.264 1045.63 303.711C1039.77 280.67 1033.91 257.629 1028.15 234.96C1091.63 199.78 1093.31 194.701 1067.83 115.575Z" fill="#F15A25"/>
<path d="M1043.93 1281.92L972.351 1281.92C951.923 1217.29 948.761 1215.59 860.507 1222.31C854.68 1199.83 848.79 1177.09 842.9 1154.43C940.391 1119.15 1040.64 1167.4 1043.93 1281.92Z" fill="#F15A25"/>
<path d="M1361.29 851.489C1338.38 859.943 1316.72 867.964 1293.44 876.573C1281.25 855.669 1268.92 833.805 1241.54 830.832C1215.78 828.014 1195.01 841.486 1173.01 854.926C1159.09 834.889 1145.39 815.193 1131.75 795.528C1230.76 719.375 1326.88 762.02 1361.32 851.489L1361.29 851.489Z" fill="#F15A25"/>
<path d="M1508.78 560.258C1521.93 574.782 1534.57 589.028 1547.59 602.902C1550.69 606.184 1555.16 608.197 1559.31 611.016C1532.84 641.953 1514.67 671.622 1538.54 709.93C1520.01 725.817 1501.9 741.363 1483.89 756.817C1436.06 707.669 1446.82 614.112 1508.78 560.227L1508.78 560.258Z" fill="#F15A25"/>
<path d="M116.415 465.833C116.508 436.63 140.377 412.629 169.268 412.629C199.151 412.629 222.772 436.723 222.493 466.886C222.214 495.656 197.725 519.812 169.051 519.626C140.625 519.44 116.322 494.603 116.446 465.833L116.415 465.833Z" fill="#F15A25"/>
<path d="M1060.11 666.419C1033.91 666.202 1011.97 644.121 1011.94 617.922C1011.87 591.257 1034.81 568.774 1061.57 569.239C1087.64 569.703 1110.08 592.187 1110.08 617.891C1110.08 644.617 1087.42 666.667 1060.14 666.45L1060.11 666.419Z" fill="#F15A25"/>
<path d="M774.921 795.094C774.921 813.086 775.293 831.513 774.518 849.908C774.394 852.665 769.341 857.062 766.055 857.589C739.768 861.801 713.357 865.238 684.373 869.295C675.88 854.616 665.619 836.901 655.39 819.28C677.151 802.402 740.171 789.457 774.89 795.094L774.921 795.094Z" fill="#F15A25"/>
<path d="M659.016 599.432C634.93 599.804 612.549 577.507 612.239 552.855C611.96 528.266 633.566 506.495 658.613 506.123C683.753 505.783 705.111 526.532 705.638 551.802C706.196 577.878 685.52 598.999 659.016 599.402L659.016 599.432Z" fill="#F15A25"/>
<path d="M956.108 155.37C955.829 132.237 975.42 112.293 999.134 111.581C1021.76 110.93 1042.56 131.524 1042.81 154.782C1043.06 177.978 1023.07 198.045 999.661 198.138C975.792 198.2 956.418 179.185 956.108 155.37Z" fill="#F15A25"/>
<path d="M447.605 51.5326C448.194 28.8325 466.948 10.9015 489.794 11.2422C513.136 11.5828 531.673 30.6906 531.363 54.0721C531.053 76.5864 510.501 96.2207 487.965 95.5084C464.778 94.7961 446.954 75.3786 447.574 51.5326L447.605 51.5326Z" fill="#F15A25"/>
<path d="M440.506 849.815C440.723 867.282 426.278 882.271 408.64 882.859C390.629 883.448 374.789 868.645 374.231 850.683C373.673 832.814 388.955 817.019 406.935 816.865C425.1 816.71 440.289 831.606 440.475 849.846L440.506 849.815Z" fill="#F15A25"/>
<path d="M1402.09 1195.68C1401.81 1212.68 1387.49 1226.86 1370.53 1226.89C1353.23 1226.95 1338.32 1211.5 1338.82 1194.03C1339.31 1176.54 1353.08 1163.19 1370.62 1163.16C1388.73 1163.16 1402.4 1177.25 1402.09 1195.68Z" fill="#F15A25"/>
<path d="M1172.2 914.138C1172.04 899.366 1184.51 886.205 1199.14 885.647C1214.48 885.09 1228.12 898.189 1228.15 913.55C1228.15 928.911 1216.43 941.267 1201.34 941.763C1185.65 942.289 1172.35 929.685 1172.2 914.138Z" fill="#F15A25"/>
<path d="M425.255 439.323C411.833 439.633 398.999 427.741 398.627 414.61C398.255 401.789 410.996 388.658 424.046 388.442C437.066 388.225 448.659 399.343 449.217 412.597C449.837 426.812 438.894 438.983 425.255 439.323Z" fill="#F15A25"/>
<path d="M513.384 1144.89C513.384 1130.61 524.575 1119.49 538.834 1119.65C552.691 1119.8 565.09 1132.07 564.594 1145.1C564.098 1157.34 551.637 1169.6 539.268 1169.97C525.381 1170.41 513.415 1158.79 513.384 1144.89Z" fill="#F15A25"/>
<path d="M1444.65 108.082C1431.81 108.453 1418.55 95.7562 1418.36 82.9351C1418.17 69.9901 1430.98 57.2929 1444.18 57.3548C1457.6 57.4168 1468.45 68.0081 1469.04 81.6963C1469.66 95.4774 1458.35 107.741 1444.65 108.113L1444.65 108.082Z" fill="#F15A25"/>
<path d="M817.264 304.083C802.819 304.299 791.628 293.522 791.628 279.4C791.628 265.836 803.501 254.006 817.14 254.006C830.315 254.006 841.381 264.938 841.846 278.471C842.342 293.027 831.927 303.897 817.264 304.114L817.264 304.083Z" fill="#F15A25"/>
</g>
<defs>
<clipPath id="clip0_879_1363">
<rect width="1394" height="2232" fill="white" transform="translate(1883 9.75638e-05) rotate(90)"/>
</clipPath>
</defs>
</svg>
