<svg width="1150" height="300" viewBox="0 0 1150 300" fill="none" xmlns="http://www.w3.org/2000/svg">
<path d="M220.583 17.613C217.076 34.9769 214.205 52.3764 212.02 69.5878C209.413 90.0821 207.711 110.835 206.954 131.269C206.608 140.649 206.461 149.72 206.323 158.496C206.146 169.605 205.978 180.093 205.404 188.153C205.19 191.141 204.936 193.493 204.677 195.353C203.061 192.563 201.15 189.001 198.991 184.966C193.462 174.64 185.89 160.493 174.705 143.185C163.566 125.948 155.714 114.012 148.376 105.525C144.098 100.576 140.139 97.0083 136.282 94.62C131.566 91.7082 126.718 90.4022 121.87 90.7427C111.143 91.4998 104.364 100.027 100.202 106.374C94.7286 114.718 88.9202 127.046 80.7995 147.601C66.8807 182.817 55.0656 219.821 45.634 257.735C17.4913 230.467 0 192.279 0 150C0 67.1588 67.1602 0 150.003 0C175.523 0 199.549 6.37238 220.588 17.613H220.583Z" fill="#F15A25"/>
<path d="M300 150C300 232.841 232.84 300 149.997 300C115.432 300 83.5945 288.307 58.2315 268.662C67.7852 228.816 80.0169 189.932 94.5913 153.054C102.219 133.754 107.773 121.868 112.601 114.51C117.688 106.761 120.925 105.678 122.912 105.541C132.288 104.881 145.51 125.334 162.244 151.235C173.099 168.03 180.508 181.867 185.915 191.965C189.625 198.891 192.303 203.896 194.798 207.535C196.419 209.898 197.898 211.569 199.443 212.794C202.797 215.447 205.998 215.574 208.097 215.218C211.065 214.71 215.094 212.708 217.447 206.025C218.514 202.997 219.261 199.104 219.81 193.763C220.745 184.632 220.938 172.629 221.157 158.731C221.294 150.036 221.436 141.041 221.777 131.813C223.073 96.7906 227.204 61.2395 234.085 25.7697C273.86 52.743 299.995 98.3202 299.995 149.995L300 150Z" fill="#F15A25"/>
<g clip-path="url(#clip0_1003_2395)">
<path d="M700 103.647L675.312 183.362H657.987L641.96 124.481L625.937 183.362H608.612L583.779 103.647H600.528L617.131 167.737L634.021 103.647H651.201L667.369 167.446L683.827 103.647H700Z" fill="black"/>
<path d="M576.42 149.653H515.64C516.122 156.017 518.478 161.133 522.712 164.986C526.946 168.845 532.145 170.774 538.304 170.774C547.157 170.774 553.414 167.061 557.072 159.636H574.828C572.42 166.967 568.065 172.97 561.76 177.65C555.456 182.329 547.634 184.667 538.3 184.667C530.693 184.667 523.883 182.953 517.869 179.532C511.851 176.11 507.134 171.285 503.72 165.066C500.301 158.847 498.596 151.638 498.596 143.438C498.596 135.239 500.254 128.03 503.575 121.811C506.896 115.592 511.561 110.795 517.579 107.415C523.593 104.041 530.501 102.351 538.295 102.351C546.089 102.351 552.491 103.994 558.365 107.27C564.233 110.551 568.805 115.155 572.078 121.088C575.348 127.02 576.987 133.845 576.987 141.561C576.987 144.551 576.795 147.254 576.411 149.662L576.42 149.653ZM559.817 136.342C559.718 130.264 557.554 125.396 553.32 121.731C549.082 118.065 543.84 116.235 537.583 116.235C531.902 116.235 527.045 118.042 523.003 121.66C518.961 125.279 516.553 130.174 515.785 136.346H559.817V136.342Z" fill="black"/>
<path d="M482.438 183.362H465.979L416.458 108.274V183.362H400V82.6665H416.458L465.979 157.608V82.6665H482.438V183.362Z" fill="black"/>
<path d="M837.198 37.6711C830.163 48.9843 823.536 60.4666 817.381 71.9947C809.249 87.2222 801.75 102.916 795.09 118.642C792.031 125.863 789.22 132.905 786.505 139.709C783.065 148.329 779.818 156.464 776.974 162.587C775.924 164.855 775.025 166.62 774.268 167.992C773.828 165.335 773.392 161.988 772.901 158.197C771.64 148.494 769.911 135.214 766.297 118.386C762.697 101.631 760.096 89.9842 756.876 81.1861C755 76.0554 752.96 72.0999 750.643 69.091C747.823 65.4236 744.41 62.9679 740.512 61.7973C731.885 59.2136 724.042 63.8551 718.901 67.5819C713.814 71.2585 707.916 76.6361 700 84.8672L707.701 94.7811C715.658 86.4128 721.51 80.9895 726.193 77.6056C732.477 73.0647 735.329 73.1791 736.935 73.6592C744.47 75.9182 748.745 95.8008 754.152 120.979C757.661 137.308 759.344 150.3 760.578 159.788C761.426 166.291 762.036 170.996 762.907 174.568C763.476 176.895 764.137 178.638 764.985 180.051C766.82 183.114 769.287 184.162 771.035 184.505C773.511 184.989 777.263 184.619 781.088 180.101C782.822 178.052 784.569 175.235 786.583 171.225C790.032 164.375 793.747 155.065 798.044 144.282C800.741 137.537 803.525 130.554 806.529 123.457C817.303 98.0187 830.195 72.9596 845 48.6687L837.194 37.6665L837.198 37.6711Z" fill="#F15A25"/>
<path d="M847.838 95.6747C845.943 93.7677 845 91.4105 845 88.5986C845 85.7867 845.947 83.4295 847.838 81.5225C849.728 79.6156 852.075 78.6665 854.869 78.6665C857.663 78.6665 859.873 79.62 861.764 81.5225C863.659 83.4251 864.602 85.7867 864.602 88.5986C864.602 91.4105 863.654 93.7677 861.764 95.6747C859.869 97.5816 857.571 98.5307 854.869 98.5307C852.167 98.5307 849.733 97.5772 847.838 95.6747ZM862.439 108.463V183.435H847.026V108.463H862.439Z" fill="black"/>
<path d="M894.006 181.466C889.361 179.334 885.69 176.429 882.988 172.757C880.287 169.084 878.843 164.979 878.664 160.441H894.616C894.888 163.619 896.397 166.272 899.147 168.4C901.897 170.532 905.345 171.596 909.489 171.596C913.634 171.596 917.174 170.757 919.56 169.08C921.946 167.402 923.144 165.248 923.144 162.617C923.144 159.805 921.81 157.717 919.157 156.358C916.499 154.998 912.283 153.502 906.516 151.868C900.928 150.328 896.375 148.831 892.862 147.379C889.344 145.927 886.304 143.706 883.734 140.714C881.164 137.721 879.883 133.774 879.883 128.874C879.883 124.884 881.054 121.233 883.396 117.923C885.738 114.612 889.098 112.003 893.467 110.101C897.84 108.194 902.862 107.245 908.542 107.245C917.012 107.245 923.841 109.399 929.025 113.707C934.205 118.015 936.977 123.891 937.342 131.329H921.929C921.657 127.974 920.306 125.299 917.871 123.299C915.437 121.304 912.148 120.306 908.003 120.306C903.858 120.306 900.836 121.079 898.673 122.619C896.511 124.164 895.427 126.204 895.427 128.742C895.427 130.737 896.147 132.415 897.59 133.774C899.028 135.134 900.787 136.202 902.862 136.97C904.932 137.743 907.998 138.718 912.055 139.897C917.464 141.349 921.902 142.824 925.372 144.32C928.841 145.816 931.837 148.019 934.363 150.919C936.885 153.824 938.192 157.678 938.285 162.485C938.285 166.749 937.113 170.558 934.767 173.913C932.42 177.273 929.109 179.899 924.828 181.806C920.547 183.709 915.52 184.662 909.753 184.662C903.985 184.662 898.643 183.594 894.002 181.466H894.006Z" fill="black"/>
<path d="M955.724 95.6747C953.829 93.7677 952.886 91.4105 952.886 88.5986C952.886 85.7867 953.833 83.4295 955.724 81.5225C957.614 79.6156 959.961 78.6665 962.755 78.6665C965.549 78.6665 967.76 79.62 969.65 81.5225C971.545 83.4251 972.488 85.7867 972.488 88.5986C972.488 91.4105 971.54 93.7677 969.65 95.6747C967.755 97.5816 965.457 98.5307 962.755 98.5307C960.053 98.5307 957.619 97.5772 955.724 95.6747ZM970.325 108.463V183.435H954.913V108.463H970.325Z" fill="black"/>
<path d="M1003.85 179.833C998.174 176.615 993.713 172.077 990.467 166.228C987.222 160.379 985.599 153.599 985.599 145.887C985.599 138.175 987.266 131.51 990.599 125.612C993.933 119.715 998.485 115.181 1004.25 112.008C1010.02 108.834 1016.46 107.245 1023.59 107.245C1030.71 107.245 1037.15 108.834 1042.92 112.008C1048.69 115.186 1053.24 119.719 1056.58 125.612C1059.91 131.51 1061.58 138.268 1061.58 145.887C1061.58 153.506 1059.87 160.264 1056.44 166.162C1053.02 172.059 1048.35 176.619 1042.45 179.837C1036.55 183.06 1030.04 184.667 1022.92 184.667C1015.8 184.667 1009.53 183.055 1003.85 179.837V179.833ZM1034.07 168.334C1037.54 166.427 1040.36 163.571 1042.52 159.761C1044.68 155.952 1045.76 151.325 1045.76 145.883C1045.76 140.44 1044.73 135.836 1042.65 132.07C1040.58 128.309 1037.83 125.471 1034.41 123.569C1030.98 121.662 1027.28 120.713 1023.32 120.713C1019.35 120.713 1015.68 121.666 1012.3 123.569C1008.92 125.476 1006.24 128.309 1004.26 132.07C1002.28 135.836 1001.28 140.44 1001.28 145.883C1001.28 153.956 1003.33 160.194 1007.43 164.59C1011.53 168.991 1016.7 171.19 1022.91 171.19C1026.88 171.19 1030.6 170.236 1034.07 168.334H1034.07Z" fill="black"/>
<path d="M1130.2 110.917C1134.84 113.367 1138.46 116.996 1141.08 121.803C1143.69 126.61 1145 132.415 1145 139.217V183.439H1129.72V141.53C1129.72 134.82 1128.05 129.669 1124.72 126.085C1121.38 122.505 1116.83 120.712 1111.06 120.712C1105.3 120.712 1100.72 122.505 1097.34 126.085C1093.96 129.669 1092.27 134.816 1092.27 141.53V183.439H1076.86V108.467H1092.27V117.04C1094.79 113.959 1098.02 111.553 1101.94 109.827C1105.86 108.105 1110.02 107.24 1114.44 107.24C1120.3 107.24 1125.55 108.463 1130.19 110.913L1130.2 110.917Z" fill="black"/>
<path d="M403.07 229.007C405.118 225.323 407.914 222.451 411.462 220.396C415.01 218.342 418.966 217.312 423.332 217.312C428.654 217.312 433.21 218.568 437.009 221.075C440.803 223.582 443.566 227.123 445.298 231.69H439.702C438.337 228.481 436.256 225.969 433.461 224.159C430.665 222.349 427.289 221.444 423.332 221.444C419.83 221.444 416.682 222.257 413.886 223.887C411.09 225.512 408.893 227.853 407.305 230.905C405.712 233.957 404.918 237.493 404.918 241.519C404.918 245.545 405.712 249.073 407.305 252.097C408.898 255.126 411.09 257.453 413.886 259.083C416.682 260.708 419.83 261.525 423.332 261.525C427.289 261.525 430.665 260.634 433.461 258.847C436.256 257.06 438.337 254.586 439.702 251.423H445.298C443.571 255.943 440.798 259.447 436.976 261.936C433.154 264.425 428.608 265.667 423.332 265.667C418.966 265.667 415.01 264.637 411.462 262.582C407.914 260.528 405.118 257.665 403.07 254.004C401.022 250.342 400 246.183 400 241.524C400 236.865 401.022 232.696 403.07 229.012V229.007Z" fill="#666666"/>
<path d="M515.838 229.861C517.997 228.596 520.649 227.964 523.784 227.964V232.913H522.488C519.033 232.913 516.256 233.841 514.166 235.693C512.072 237.549 511.027 240.642 511.027 244.982V265.667H506.252V228.638H511.027V235.217C512.072 232.913 513.674 231.126 515.838 229.861Z" fill="#666666"/>
<path d="M620.483 248.436H589.582C589.716 251.238 590.399 253.634 591.63 255.624C592.856 257.614 594.472 259.12 596.474 260.135C598.475 261.151 600.658 261.663 603.022 261.663C606.115 261.663 608.72 260.916 610.833 259.424C612.946 257.933 614.344 255.92 615.027 253.39H620.075C619.165 257.009 617.219 259.96 614.242 262.241C611.265 264.526 607.522 265.667 603.022 265.667C599.52 265.667 596.381 264.886 593.608 263.326C590.836 261.765 588.662 259.554 587.093 256.677C585.523 253.805 584.738 250.449 584.738 246.607C584.738 242.766 585.509 239.395 587.055 236.501C588.602 233.606 590.761 231.389 593.534 229.852C596.306 228.314 599.469 227.548 603.017 227.548C606.565 227.548 609.667 228.319 612.328 229.852C614.99 231.389 617.038 233.458 618.468 236.057C619.898 238.657 620.618 241.538 620.618 244.705C620.618 246.335 620.572 247.577 620.483 248.436ZM614.107 237.516C612.946 235.573 611.367 234.104 609.366 233.107C607.364 232.114 605.181 231.616 602.817 231.616C599.269 231.616 596.246 232.747 593.743 235.005C591.24 237.267 589.856 240.453 589.582 244.567H615.774C615.821 241.81 615.264 239.455 614.103 237.512L614.107 237.516Z" fill="#666666"/>
<path d="M683.857 236.542C685.38 233.67 687.493 231.454 690.201 229.894C692.908 228.333 695.964 227.553 699.378 227.553C702.791 227.553 705.982 228.365 708.554 229.995C711.123 231.625 712.975 233.703 714.113 236.233V228.093H718.887V265.122H714.113V256.917C712.929 259.452 711.053 261.539 708.485 263.192C705.916 264.845 702.856 265.667 699.308 265.667C695.76 265.667 692.908 264.877 690.201 263.293C687.493 261.71 685.38 259.475 683.857 256.58C682.334 253.685 681.572 250.342 681.572 246.543C681.572 242.743 682.334 239.409 683.857 236.538V236.542ZM712.27 238.744C711.044 236.482 709.372 234.741 707.254 233.523C705.141 232.304 702.81 231.69 700.26 231.69C697.71 231.69 695.258 232.276 693.164 233.453C691.069 234.631 689.421 236.334 688.218 238.574C687.01 240.813 686.411 243.468 686.411 246.543C686.411 249.618 687.015 252.231 688.218 254.512C689.421 256.797 691.069 258.538 693.164 259.734C695.254 260.934 697.622 261.53 700.26 261.53C702.898 261.53 705.136 260.92 707.254 259.697C709.367 258.478 711.039 256.737 712.27 254.475C713.496 252.212 714.113 249.59 714.113 246.607C714.113 243.625 713.5 241.002 712.27 238.74V238.744Z" fill="#666666"/>
<path d="M789.873 232.641V255.634C789.873 257.896 790.305 259.457 791.168 260.311C792.032 261.17 793.555 261.599 795.738 261.599H800.104V265.667H794.986C791.619 265.667 789.12 264.886 787.481 263.326C785.842 261.765 785.024 259.198 785.024 255.629V232.636H779.841V228.633H785.024V219.344H789.868V228.633H800.099V232.636H789.868L789.873 232.641Z" fill="#666666"/>
<path d="M862.079 220.636C861.397 219.958 861.058 219.122 861.058 218.125C861.058 217.127 861.397 216.306 862.079 215.65C862.762 214.994 863.579 214.667 864.536 214.667C865.493 214.667 866.31 214.994 866.993 215.65C867.676 216.306 868.014 217.132 868.014 218.125C868.014 219.117 867.676 219.958 866.993 220.636C866.31 221.315 865.493 221.652 864.536 221.652C863.579 221.652 862.762 221.315 862.079 220.636ZM866.923 228.638V265.667H862.149V228.638H866.923Z" fill="#666666"/>
<path d="M946.635 261.054L959.188 228.638H964.236L949.296 265.667H943.909L928.969 228.638H934.086L946.639 261.054H946.635Z" fill="#666666"/>
<path d="M1060.94 248.436H1030.03C1030.17 251.238 1030.85 253.634 1032.08 255.624C1033.31 257.614 1034.92 259.12 1036.93 260.135C1038.93 261.151 1041.11 261.663 1043.47 261.663C1046.57 261.663 1049.17 260.916 1051.28 259.424C1053.4 257.933 1054.8 255.92 1055.48 253.39H1060.53C1059.62 257.009 1057.67 259.96 1054.69 262.241C1051.72 264.526 1047.97 265.667 1043.47 265.667C1039.97 265.667 1036.83 264.886 1034.06 263.326C1031.29 261.765 1029.11 259.554 1027.54 256.677C1025.97 253.805 1025.19 250.449 1025.19 246.607C1025.19 242.766 1025.96 239.395 1027.51 236.501C1029.05 233.606 1031.21 231.389 1033.99 229.852C1036.76 228.314 1039.92 227.548 1043.47 227.548C1047.02 227.548 1050.12 228.319 1052.78 229.852C1055.44 231.389 1057.48 233.458 1058.92 236.057C1060.35 238.657 1061.07 241.538 1061.07 244.705C1061.07 246.335 1061.02 247.577 1060.94 248.436ZM1054.56 237.516C1053.4 235.573 1051.82 234.104 1049.82 233.107C1047.82 232.114 1045.63 231.616 1043.27 231.616C1039.72 231.616 1036.7 232.747 1034.19 235.005C1031.69 237.267 1030.31 240.453 1030.03 244.567H1056.23C1056.28 241.81 1055.72 239.455 1054.56 237.512V237.516Z" fill="#666666"/>
<path d="M1126.56 262.721C1123.85 260.754 1122.34 258.076 1122.02 254.683H1126.94C1127.17 256.76 1128.15 258.445 1129.91 259.734C1131.66 261.022 1134.01 261.668 1136.96 261.668C1139.56 261.668 1141.59 261.059 1143.07 259.835C1144.55 258.616 1145.29 257.102 1145.29 255.292C1145.29 254.027 1144.88 252.988 1144.06 252.171C1143.24 251.354 1142.21 250.712 1140.96 250.236C1139.71 249.761 1138.01 249.253 1135.88 248.713C1133.1 247.988 1130.85 247.268 1129.12 246.543C1127.4 245.818 1125.93 244.747 1124.72 243.32C1123.51 241.898 1122.92 239.986 1122.92 237.59C1122.92 235.78 1123.46 234.109 1124.56 232.571C1125.65 231.034 1127.19 229.815 1129.19 228.91C1131.2 228.005 1133.47 227.553 1136.02 227.553C1140.02 227.553 1143.25 228.559 1145.7 230.572C1148.16 232.585 1149.48 235.351 1149.66 238.878H1144.89C1144.75 236.708 1143.9 234.958 1142.33 233.624C1140.76 232.29 1138.61 231.625 1135.88 231.625C1133.47 231.625 1131.52 232.188 1130.02 233.319C1128.52 234.451 1127.76 235.854 1127.76 237.526C1127.76 238.975 1128.21 240.162 1129.09 241.085C1129.98 242.013 1131.08 242.738 1132.4 243.255C1133.72 243.777 1135.49 244.354 1137.72 244.987C1140.41 245.712 1142.54 246.409 1144.13 247.087C1145.73 247.766 1147.09 248.759 1148.23 250.07C1149.36 251.381 1149.95 253.122 1150 255.292C1150 257.282 1149.46 259.055 1148.36 260.615C1147.27 262.176 1145.75 263.409 1143.79 264.309C1141.84 265.214 1139.58 265.667 1137.04 265.667C1132.76 265.667 1129.27 264.683 1126.57 262.716L1126.56 262.721Z" fill="#666666"/>
</g>
<defs>
<clipPath id="clip0_1003_2395">
<rect width="750" height="231.333" fill="white" transform="translate(400 34.3335)"/>
</clipPath>
</defs>
</svg>
