<svg width="321" height="99" viewBox="0 0 321 99" fill="none" xmlns="http://www.w3.org/2000/svg">
<g clip-path="url(#clip0_879_1331)">
<path d="M128.683 29.5487L118.093 63.6701H110.662L103.787 38.4668L96.9139 63.6701H89.4824L78.8305 29.5487H86.0148L93.1369 56.982L100.381 29.5487H107.751L114.686 56.8575L121.746 29.5487H128.683Z" fill="black"/>
<path d="M75.6741 49.2412H49.6029C49.8098 51.9655 50.8204 54.1553 52.6365 55.8048C54.4527 57.4562 56.6827 58.2819 59.3246 58.2819C63.1217 58.2819 65.8058 56.6928 67.3748 53.5145H74.991C73.9584 56.6526 72.09 59.2221 69.3859 61.2251C66.6817 63.2281 63.3266 64.2286 59.3226 64.2286C56.0599 64.2286 53.1388 63.4953 50.5592 62.0308C47.9776 60.5662 45.9545 58.5009 44.4899 55.8389C43.0233 53.177 42.292 50.0911 42.292 46.5813C42.292 43.0715 43.0032 39.9856 44.4276 37.3237C45.852 34.6617 47.853 32.6085 50.4346 31.162C53.0142 29.7175 55.9776 28.9942 59.3206 28.9942C62.6636 28.9942 65.41 29.6974 67.9293 31.0997C70.4466 32.504 72.4074 34.4749 73.8117 37.0143C75.2141 39.5537 75.9172 42.4748 75.9172 45.7777C75.9172 47.0574 75.8348 48.2146 75.6701 49.2453L75.6741 49.2412ZM68.5521 43.5436C68.5099 40.9419 67.5817 38.8586 65.7656 37.2895C63.9474 35.7204 61.6993 34.9369 59.0152 34.9369C56.5782 34.9369 54.4949 35.7104 52.7611 37.2594C51.0273 38.8084 49.9947 40.9038 49.6652 43.5456H68.5521V43.5436Z" fill="black"/>
<path d="M35.361 63.6702H28.3013L7.05974 31.5297V63.6702H0V20.5684H7.05974L28.3013 52.6466V20.5684H35.361V63.6702Z" fill="black"/>
<path d="M187.384 1.14845C184.374 6.00326 181.538 10.9307 178.905 15.8777C175.425 22.4123 172.217 29.147 169.368 35.8955C168.059 38.994 166.856 42.016 165.694 44.9359C164.222 48.6349 162.833 52.1259 161.616 54.7535C161.167 55.7268 160.782 56.4843 160.459 57.073C160.27 55.9329 160.084 54.4964 159.874 52.8696C159.334 48.7056 158.594 43.007 157.048 35.7856C155.508 28.5956 154.395 23.5975 153.018 19.822C152.215 17.6203 151.342 15.9228 150.351 14.6316C149.144 13.0578 147.684 12.0041 146.016 11.5017C142.325 10.393 138.969 12.3847 136.769 13.9841C134.593 15.5618 132.07 17.8695 128.683 21.4017L131.977 25.656C135.382 22.0649 137.886 19.7376 139.889 18.2855C142.578 16.3369 143.798 16.386 144.485 16.592C147.709 17.5614 149.538 26.0936 151.852 36.8982C153.353 43.9057 154.073 49.4807 154.601 53.5525C154.964 56.343 155.225 58.3622 155.598 59.8948C155.841 60.8936 156.124 61.6413 156.487 62.2476C157.272 63.5624 158.328 64.0118 159.075 64.159C160.135 64.367 161.74 64.208 163.377 62.2692C164.118 61.3901 164.866 60.1813 165.728 58.4603C167.203 55.5208 168.793 51.5254 170.631 46.8983C171.785 44.0038 172.976 41.0074 174.262 37.9618C178.871 27.0454 184.387 16.2918 190.722 5.86784L187.382 1.14648L187.384 1.14845Z" fill="#F15A25"/>
<path d="M191.942 26.2178C191.127 25.4032 190.722 24.3964 190.722 23.1954C190.722 21.9944 191.129 20.9875 191.942 20.173C192.754 19.3585 193.763 18.9531 194.964 18.9531C196.165 18.9531 197.115 19.3604 197.928 20.173C198.742 20.9856 199.148 21.9944 199.148 23.1954C199.148 24.3964 198.741 25.4032 197.928 26.2178C197.113 27.0323 196.125 27.4377 194.964 27.4377C193.803 27.4377 192.756 27.0304 191.942 26.2178ZM198.218 31.6799V63.7025H191.593V31.6799H198.218Z" fill="black"/>
<path d="M211.788 62.8616C209.791 61.9509 208.213 60.7103 207.052 59.1416C205.89 57.5729 205.27 55.8194 205.192 53.8812H212.05C212.167 55.2387 212.815 56.3718 213.998 57.2806C215.18 58.1913 216.662 58.6457 218.443 58.6457C220.225 58.6457 221.747 58.2875 222.772 57.571C223.798 56.8545 224.313 55.9344 224.313 54.8107C224.313 53.6097 223.74 52.7179 222.599 52.1371C221.456 51.5564 219.645 50.9172 217.165 50.2196C214.763 49.5616 212.806 48.9224 211.296 48.3021C209.784 47.6818 208.477 46.7334 207.372 45.4551C206.267 44.1767 205.717 42.4912 205.717 40.3983C205.717 38.6938 206.22 37.1346 207.227 35.7205C208.234 34.3064 209.678 33.1921 211.556 32.3795C213.436 31.5649 215.595 31.1596 218.036 31.1596C221.677 31.1596 224.613 32.0797 226.841 33.9199C229.068 35.7601 230.26 38.2696 230.416 41.4466H223.791C223.674 40.0137 223.093 38.8711 222.047 38.017C221 37.1647 219.586 36.7386 217.804 36.7386C216.023 36.7386 214.723 37.0686 213.794 37.7266C212.864 38.3865 212.399 39.2576 212.399 40.3417C212.399 41.194 212.708 41.9104 213.328 42.4911C213.947 43.0719 214.703 43.5281 215.595 43.8562C216.484 44.1862 217.802 44.6029 219.546 45.1063C221.871 45.7266 223.779 46.3563 225.271 46.9955C226.762 47.6347 228.05 48.5755 229.136 49.8142C230.22 51.0549 230.782 52.7009 230.821 54.7541C230.821 56.5755 230.318 58.2026 229.309 59.6356C228.301 61.0704 226.877 62.1922 225.037 63.0068C223.197 63.8194 221.036 64.2267 218.557 64.2267C216.077 64.2267 213.781 63.7704 211.786 62.8616H211.788Z" fill="black"/>
<path d="M238.318 26.2178C237.504 25.4032 237.098 24.3964 237.098 23.1954C237.098 21.9944 237.505 20.9875 238.318 20.173C239.131 19.3585 240.139 18.9531 241.34 18.9531C242.541 18.9531 243.492 19.3604 244.304 20.173C245.119 20.9856 245.524 21.9944 245.524 23.1954C245.524 24.3964 245.117 25.4032 244.304 26.2178C243.49 27.0323 242.502 27.4377 241.34 27.4377C240.179 27.4377 239.133 27.0304 238.318 26.2178ZM244.595 31.6799V63.7025H237.969V31.6799H244.595Z" fill="black"/>
<path d="M259.008 62.164C256.566 60.7895 254.648 58.8512 253.253 56.353C251.858 53.8548 251.16 50.9587 251.16 47.6648C251.16 44.3709 251.877 41.5239 253.31 39.0049C254.743 36.486 256.7 34.5496 259.179 33.194C261.658 31.8383 264.428 31.1596 267.49 31.1596C270.552 31.1596 273.322 31.8383 275.801 33.194C278.281 34.5515 280.238 36.4879 281.671 39.0049C283.104 41.5239 283.822 44.4105 283.822 47.6648C283.822 50.9191 283.085 53.8058 281.614 56.3247C280.142 58.8437 278.135 60.7914 275.599 62.1659C273.062 63.5422 270.262 64.2286 267.202 64.2286C264.142 64.2286 261.447 63.5404 259.008 62.1659V62.164ZM271.996 57.2524C273.488 56.4379 274.698 55.218 275.628 53.5908C276.557 51.9637 277.023 49.9877 277.023 47.6629C277.023 45.3382 276.578 43.3717 275.686 41.7634C274.794 40.157 273.612 38.9446 272.142 38.132C270.669 37.3175 269.08 36.9121 267.375 36.9121C265.671 36.9121 264.091 37.3194 262.639 38.132C261.185 38.9465 260.033 40.157 259.181 41.7634C258.329 43.3717 257.903 45.3382 257.903 47.6629C257.903 51.1114 258.783 53.7756 260.546 55.6535C262.309 57.5333 264.528 58.4723 267.2 58.4723C268.904 58.4723 270.503 58.065 271.995 57.2524H271.996Z" fill="black"/>
<path d="M313.318 32.7282C315.313 33.7747 316.872 35.3245 317.996 37.3778C319.119 39.431 319.681 41.9104 319.681 44.8159V63.7044H313.114V45.8039C313.114 42.938 312.396 40.7376 310.963 39.2067C309.528 37.6776 307.573 36.9121 305.094 36.9121C302.614 36.9121 300.648 37.6776 299.194 39.2067C297.74 40.7376 297.014 42.9361 297.014 45.8039V63.7044H290.389V31.6818H297.014V35.3434C298.099 34.0273 299.484 32.9998 301.17 32.2625C302.856 31.5272 304.647 31.1577 306.545 31.1577C309.064 31.1577 311.319 31.6799 313.316 32.7264L313.318 32.7282Z" fill="black"/>
<path d="M1.3115 83.2449C2.1865 81.6615 3.38096 80.4274 4.89683 79.5444C6.4127 78.6614 8.10316 78.219 9.96824 78.219C12.242 78.219 14.1885 78.7587 15.8115 79.8361C17.4325 80.9135 18.6131 82.4354 19.3532 84.3978H16.9623C16.3789 83.0187 15.4901 81.9393 14.2956 81.1615C13.1012 80.3837 11.6587 79.9948 9.96824 79.9948C8.47221 79.9948 7.12698 80.344 5.93254 81.0445C4.73809 81.7429 3.79959 82.7489 3.12102 84.0604C2.44047 85.372 2.10118 86.8919 2.10118 88.6221C2.10118 90.3523 2.44047 91.8683 3.12102 93.1679C3.80158 94.4695 4.73809 95.4696 5.93254 96.17C7.12698 96.8684 8.47221 97.2196 9.96824 97.2196C11.6587 97.2196 13.1012 96.8367 14.2956 96.0688C15.4901 95.3009 16.3789 94.2374 16.9623 92.8782H19.3532C18.6151 94.8207 17.4305 96.3268 15.7976 97.3962C14.1647 98.4657 12.2222 98.9995 9.96824 98.9995C8.10316 98.9995 6.4127 98.557 4.89683 97.674C3.38096 96.7911 2.1865 95.5608 1.3115 93.9874C0.436505 92.4139 0 90.6261 0 88.6241C0 86.622 0.436505 84.8303 1.3115 83.2469V83.2449Z" fill="#666666"/>
<path d="M49.4902 83.612C50.4129 83.0684 51.5458 82.7965 52.8851 82.7965V84.9236H52.3315C50.8553 84.9236 49.6688 85.3224 48.776 86.1181C47.8811 86.9157 47.4347 88.2451 47.4347 90.1103V98.9995H45.395V83.0862H47.4347V85.9137C47.8811 84.9236 48.5656 84.1557 49.4902 83.612Z" fill="#666666"/>
<path d="M94.1987 91.5944H80.9964C81.0539 92.7988 81.3456 93.8286 81.8714 94.6838C82.3952 95.539 83.0856 96.1859 83.9408 96.6224C84.796 97.0589 85.7285 97.2792 86.7384 97.2792C88.0599 97.2792 89.1729 96.9577 90.0757 96.3168C90.9785 95.6759 91.5757 94.8108 91.8674 93.7235H94.0241C93.6352 95.2791 92.8039 96.547 91.5321 97.5272C90.2602 98.5094 88.661 98.9995 86.7384 98.9995C85.2424 98.9995 83.9011 98.6641 82.7166 97.9935C81.5321 97.3228 80.6035 96.3724 79.9329 95.1362C79.2622 93.9021 78.9269 92.4595 78.9269 90.8087C78.9269 89.1578 79.2563 87.7094 79.917 86.4653C80.5777 85.2212 81.5003 84.2688 82.6849 83.608C83.8694 82.9473 85.2206 82.6179 86.7365 82.6179C88.2523 82.6179 89.5777 82.9493 90.7146 83.608C91.8515 84.2688 92.7265 85.1577 93.3376 86.2748C93.9487 87.3919 94.2563 88.63 94.2563 89.9912C94.2563 90.6916 94.2364 91.2254 94.1987 91.5944ZM91.4745 86.9018C90.9785 86.0665 90.3039 85.4355 89.4487 85.0069C88.5936 84.5803 87.661 84.366 86.6511 84.366C85.1352 84.366 83.8436 84.8521 82.7741 85.8224C81.7047 86.7947 81.1134 88.1637 80.9964 89.9317H92.1868C92.2067 88.7471 91.9686 87.7352 91.4726 86.8998L91.4745 86.9018Z" fill="#666666"/>
<path d="M121.274 86.4832C121.925 85.249 122.828 84.2966 123.985 83.6259C125.141 82.9552 126.447 82.6199 127.905 82.6199C129.364 82.6199 130.727 82.9691 131.826 83.6696C132.923 84.37 133.715 85.2629 134.201 86.3502V82.8521H136.241V98.7653H134.201V95.2394C133.695 96.3287 132.893 97.2256 131.796 97.9359C130.699 98.6463 129.391 98.9995 127.875 98.9995C126.36 98.9995 125.141 98.6602 123.985 97.9796C122.828 97.299 121.925 96.3386 121.274 95.0945C120.623 93.8505 120.298 92.4139 120.298 90.7809C120.298 89.1479 120.623 87.7153 121.274 86.4812V86.4832ZM133.413 87.4296C132.889 86.4573 132.175 85.7093 131.27 85.1855C130.368 84.6617 129.372 84.3978 128.282 84.3978C127.193 84.3978 126.145 84.6497 125.25 85.1557C124.356 85.6617 123.651 86.3938 123.137 87.3562C122.622 88.3185 122.366 89.4594 122.366 90.7809C122.366 92.1024 122.623 93.2254 123.137 94.2056C123.651 95.1878 124.356 95.9359 125.25 96.4498C126.143 96.9657 127.155 97.2216 128.282 97.2216C129.409 97.2216 130.366 96.9597 131.27 96.4339C132.173 95.9101 132.887 95.162 133.413 94.1898C133.937 93.2175 134.201 92.0905 134.201 90.8087C134.201 89.5269 133.939 88.3999 133.413 87.4276V87.4296Z" fill="#666666"/>
<path d="M166.568 84.8065V94.6878C166.568 95.6601 166.753 96.3307 167.122 96.6978C167.491 97.0669 168.142 97.2514 169.074 97.2514H170.939V98.9995H168.753C167.314 98.9995 166.247 98.6641 165.546 97.9935C164.846 97.3228 164.497 96.2196 164.497 94.6858V84.8045H162.282V83.0842H164.497V79.092H166.566V83.0842H170.937V84.8045H166.566L166.568 84.8065Z" fill="#666666"/>
<path d="M197.417 79.6476C197.126 79.3559 196.981 78.9968 196.981 78.5682C196.981 78.1396 197.126 77.7864 197.417 77.5047C197.709 77.2229 198.058 77.082 198.467 77.082C198.876 77.082 199.225 77.2229 199.517 77.5047C199.808 77.7864 199.953 78.1416 199.953 78.5682C199.953 78.9948 199.808 79.3559 199.517 79.6476C199.225 79.9393 198.876 80.0841 198.467 80.0841C198.058 80.0841 197.709 79.9393 197.417 79.6476ZM199.487 83.0862V98.9995H197.447V83.0862H199.487Z" fill="#666666"/>
<path d="M233.543 97.0172L238.906 83.0862H241.062L234.68 98.9995H232.378L225.995 83.0862H228.182L233.545 97.0172H233.543Z" fill="#666666"/>
<path d="M282.376 91.5944H269.174C269.231 92.7988 269.523 93.8286 270.049 94.6838C270.573 95.539 271.263 96.1859 272.118 96.6224C272.973 97.0589 273.906 97.2792 274.916 97.2792C276.237 97.2792 277.35 96.9577 278.253 96.3168C279.156 95.6759 279.755 94.8108 280.045 93.7235H282.202C281.813 95.2791 280.981 96.547 279.709 97.5272C278.438 98.5094 276.838 98.9995 274.916 98.9995C273.42 98.9995 272.079 98.6641 270.894 97.9935C269.71 97.3228 268.781 96.3724 268.11 95.1362C267.44 93.9021 267.104 92.4595 267.104 90.8087C267.104 89.1578 267.434 87.7094 268.094 86.4653C268.755 85.2212 269.678 84.2688 270.862 83.608C272.047 82.9473 273.398 82.6179 274.914 82.6179C276.43 82.6179 277.755 82.9493 278.892 83.608C280.029 84.2688 280.902 85.1577 281.515 86.2748C282.126 87.3919 282.434 88.63 282.434 89.9912C282.434 90.6916 282.414 91.2254 282.376 91.5944ZM279.652 86.9018C279.156 86.0665 278.481 85.4355 277.626 85.0069C276.771 84.5803 275.838 84.366 274.829 84.366C273.313 84.366 272.021 84.8521 270.952 85.8224C269.882 86.7947 269.291 88.1637 269.174 89.9317H280.366C280.386 88.7471 280.148 87.7352 279.652 86.8998V86.9018Z" fill="#666666"/>
<path d="M310.414 97.7335C309.257 96.8883 308.612 95.7374 308.476 94.279H310.575C310.672 95.1719 311.095 95.8962 311.843 96.4498C312.591 97.0034 313.597 97.2811 314.858 97.2811C315.966 97.2811 316.835 97.0192 317.468 96.4934C318.099 95.9696 318.414 95.3188 318.414 94.541C318.414 93.9973 318.239 93.5509 317.89 93.1997C317.541 92.8485 317.099 92.5726 316.565 92.3683C316.031 92.1639 315.307 91.9456 314.394 91.7135C313.21 91.402 312.247 91.0924 311.509 90.7809C310.771 90.4694 310.144 90.0091 309.628 89.3959C309.112 88.7848 308.856 87.9633 308.856 86.9335C308.856 86.1557 309.089 85.4375 309.557 84.7767C310.023 84.116 310.684 83.5922 311.539 83.2033C312.394 82.8144 313.364 82.6199 314.454 82.6199C316.164 82.6199 317.543 83.0525 318.593 83.9176C319.642 84.7827 320.206 85.9712 320.283 87.4871H318.243C318.186 86.5546 317.821 85.8026 317.15 85.2291C316.479 84.6557 315.563 84.37 314.396 84.37C313.366 84.37 312.531 84.612 311.89 85.0982C311.249 85.5843 310.928 86.1875 310.928 86.9058C310.928 87.5288 311.116 88.0388 311.495 88.4356C311.874 88.8344 312.345 89.1459 312.908 89.3682C313.472 89.5924 314.229 89.8404 315.182 90.1122C316.329 90.4238 317.241 90.7234 317.922 91.0151C318.602 91.3067 319.184 91.7333 319.67 92.2968C320.156 92.8603 320.408 93.6084 320.428 94.541C320.428 95.3962 320.196 96.1581 319.727 96.8287C319.261 97.4994 318.61 98.0292 317.775 98.4161C316.94 98.805 315.978 98.9995 314.89 98.9995C313.063 98.9995 311.573 98.5768 310.416 97.7316L310.414 97.7335Z" fill="#666666"/>
</g>
<defs>
<clipPath id="clip0_879_1331">
<rect width="320.428" height="99" fill="white"/>
</clipPath>
</defs>
</svg>
